<mxfile host="app.diagrams.net" modified="2023-10-31T17:36:44.073Z" agent="Mozilla/5.0 (Windows NT 10.0; Win64; x64) AppleWebKit/537.36 (KHTML, like Gecko) Chrome/118.0.0.0 Safari/537.36" etag="A1UZ93IZHFBJSLIb5mbf" version="22.0.8" type="device">
  <diagram name="Страница — 1" id="5-fcxpvFIiZqHNmaGqeM">
    <mxGraphModel dx="2022" dy="663" grid="1" gridSize="10" guides="1" tooltips="1" connect="1" arrows="1" fold="1" page="1" pageScale="1" pageWidth="827" pageHeight="1169" math="0" shadow="0">
      <root>
        <mxCell id="0" />
        <mxCell id="1" parent="0" />
        <mxCell id="eBylzoKGfoWa9Z1TPYgh-1" value="Н_ТИПЫ_ВЕДОМОСТЕЙ" style="rounded=0;whiteSpace=wrap;html=1;" parent="1" vertex="1">
          <mxGeometry x="-330" y="450" width="190" height="30" as="geometry" />
        </mxCell>
        <mxCell id="eBylzoKGfoWa9Z1TPYgh-4" value="Н_ВЕДОМОСТИ" style="rounded=0;whiteSpace=wrap;html=1;" parent="1" vertex="1">
          <mxGeometry x="-110" y="450" width="190" height="30" as="geometry" />
        </mxCell>
        <mxCell id="eBylzoKGfoWa9Z1TPYgh-5" value="⋈(Н_ТИПЫ_ВЕДОМОСТЕЙ.ИД = Н_ВЕДОМОСТИ.ТВ_ИД)" style="rounded=0;whiteSpace=wrap;html=1;" parent="1" vertex="1">
          <mxGeometry x="-226" y="370" width="190" height="50" as="geometry" />
        </mxCell>
        <mxCell id="eBylzoKGfoWa9Z1TPYgh-6" value="" style="endArrow=none;html=1;rounded=0;exitX=0.5;exitY=0;exitDx=0;exitDy=0;entryX=0.5;entryY=1;entryDx=0;entryDy=0;" parent="1" source="eBylzoKGfoWa9Z1TPYgh-1" target="eBylzoKGfoWa9Z1TPYgh-5" edge="1">
          <mxGeometry width="50" height="50" relative="1" as="geometry">
            <mxPoint x="-110" y="420" as="sourcePoint" />
            <mxPoint x="-130" y="410" as="targetPoint" />
          </mxGeometry>
        </mxCell>
        <mxCell id="eBylzoKGfoWa9Z1TPYgh-7" value="" style="endArrow=none;html=1;rounded=0;exitX=0.5;exitY=0;exitDx=0;exitDy=0;entryX=0.5;entryY=1;entryDx=0;entryDy=0;" parent="1" source="eBylzoKGfoWa9Z1TPYgh-4" target="eBylzoKGfoWa9Z1TPYgh-5" edge="1">
          <mxGeometry width="50" height="50" relative="1" as="geometry">
            <mxPoint x="-110" y="420" as="sourcePoint" />
            <mxPoint x="-60" y="370" as="targetPoint" />
          </mxGeometry>
        </mxCell>
        <mxCell id="eBylzoKGfoWa9Z1TPYgh-10" value="σ(Н_ТИПЫ_ВЕДОМОСТЕЙ.ИД &amp;gt; 1)" style="rounded=0;whiteSpace=wrap;html=1;" parent="1" vertex="1">
          <mxGeometry x="-226" y="310" width="190" height="30" as="geometry" />
        </mxCell>
        <mxCell id="eBylzoKGfoWa9Z1TPYgh-11" value="σ(Н_ВЕДОМОСТИ.ЧЛВК_ИД &amp;gt; 105590)" style="rounded=0;whiteSpace=wrap;html=1;" parent="1" vertex="1">
          <mxGeometry x="-226" y="240" width="190" height="30" as="geometry" />
        </mxCell>
        <mxCell id="eBylzoKGfoWa9Z1TPYgh-12" value="" style="endArrow=none;html=1;rounded=0;exitX=0.5;exitY=0;exitDx=0;exitDy=0;entryX=0.5;entryY=1;entryDx=0;entryDy=0;" parent="1" source="eBylzoKGfoWa9Z1TPYgh-5" target="eBylzoKGfoWa9Z1TPYgh-10" edge="1">
          <mxGeometry width="50" height="50" relative="1" as="geometry">
            <mxPoint x="-110" y="330" as="sourcePoint" />
            <mxPoint x="-60" y="280" as="targetPoint" />
          </mxGeometry>
        </mxCell>
        <mxCell id="eBylzoKGfoWa9Z1TPYgh-13" value="" style="endArrow=none;html=1;rounded=0;entryX=0.5;entryY=1;entryDx=0;entryDy=0;exitX=0.5;exitY=0;exitDx=0;exitDy=0;" parent="1" source="eBylzoKGfoWa9Z1TPYgh-10" target="eBylzoKGfoWa9Z1TPYgh-11" edge="1">
          <mxGeometry width="50" height="50" relative="1" as="geometry">
            <mxPoint x="-110" y="330" as="sourcePoint" />
            <mxPoint x="-60" y="280" as="targetPoint" />
          </mxGeometry>
        </mxCell>
        <mxCell id="eBylzoKGfoWa9Z1TPYgh-22" value="Н_ТИПЫ_ВЕДОМОСТЕЙ" style="rounded=0;whiteSpace=wrap;html=1;" parent="1" vertex="1">
          <mxGeometry x="160" y="450" width="190" height="30" as="geometry" />
        </mxCell>
        <mxCell id="eBylzoKGfoWa9Z1TPYgh-23" value="Н_ВЕДОМОСТИ" style="rounded=0;whiteSpace=wrap;html=1;" parent="1" vertex="1">
          <mxGeometry x="400" y="380" width="190" height="30" as="geometry" />
        </mxCell>
        <mxCell id="eBylzoKGfoWa9Z1TPYgh-31" value="σ(Н_ТИПЫ_ВЕДОМОСТЕЙ.ИД &amp;gt; 1)" style="rounded=0;whiteSpace=wrap;html=1;" parent="1" vertex="1">
          <mxGeometry x="160" y="380" width="190" height="30" as="geometry" />
        </mxCell>
        <mxCell id="eBylzoKGfoWa9Z1TPYgh-32" value="⋈(Н_ТИПЫ_ВЕДОМОСТЕЙ.ИД = Н_ВЕДОМОСТИ.ТВ_ИД)" style="rounded=0;whiteSpace=wrap;html=1;" parent="1" vertex="1">
          <mxGeometry x="270" y="300" width="190" height="50" as="geometry" />
        </mxCell>
        <mxCell id="eBylzoKGfoWa9Z1TPYgh-33" value="σ(Н_ВЕДОМОСТИ.ЧЛВК_ИД &amp;gt; 105590)" style="rounded=0;whiteSpace=wrap;html=1;" parent="1" vertex="1">
          <mxGeometry x="270" y="240" width="190" height="30" as="geometry" />
        </mxCell>
        <mxCell id="eBylzoKGfoWa9Z1TPYgh-34" value="" style="endArrow=none;html=1;rounded=0;entryX=0.5;entryY=1;entryDx=0;entryDy=0;exitX=0.5;exitY=0;exitDx=0;exitDy=0;" parent="1" source="eBylzoKGfoWa9Z1TPYgh-22" target="eBylzoKGfoWa9Z1TPYgh-31" edge="1">
          <mxGeometry width="50" height="50" relative="1" as="geometry">
            <mxPoint x="180" y="400" as="sourcePoint" />
            <mxPoint x="230" y="350" as="targetPoint" />
          </mxGeometry>
        </mxCell>
        <mxCell id="eBylzoKGfoWa9Z1TPYgh-35" value="" style="endArrow=none;html=1;rounded=0;entryX=0.5;entryY=1;entryDx=0;entryDy=0;exitX=0.5;exitY=0;exitDx=0;exitDy=0;" parent="1" source="eBylzoKGfoWa9Z1TPYgh-23" target="eBylzoKGfoWa9Z1TPYgh-32" edge="1">
          <mxGeometry width="50" height="50" relative="1" as="geometry">
            <mxPoint x="180" y="400" as="sourcePoint" />
            <mxPoint x="230" y="350" as="targetPoint" />
          </mxGeometry>
        </mxCell>
        <mxCell id="eBylzoKGfoWa9Z1TPYgh-36" value="" style="endArrow=none;html=1;rounded=0;entryX=0.5;entryY=1;entryDx=0;entryDy=0;exitX=0.5;exitY=0;exitDx=0;exitDy=0;" parent="1" source="eBylzoKGfoWa9Z1TPYgh-31" target="eBylzoKGfoWa9Z1TPYgh-32" edge="1">
          <mxGeometry width="50" height="50" relative="1" as="geometry">
            <mxPoint x="180" y="400" as="sourcePoint" />
            <mxPoint x="230" y="350" as="targetPoint" />
          </mxGeometry>
        </mxCell>
        <mxCell id="eBylzoKGfoWa9Z1TPYgh-37" value="" style="endArrow=none;html=1;rounded=0;entryX=0.5;entryY=1;entryDx=0;entryDy=0;exitX=0.5;exitY=0;exitDx=0;exitDy=0;" parent="1" source="eBylzoKGfoWa9Z1TPYgh-32" target="eBylzoKGfoWa9Z1TPYgh-33" edge="1">
          <mxGeometry width="50" height="50" relative="1" as="geometry">
            <mxPoint x="180" y="400" as="sourcePoint" />
            <mxPoint x="230" y="350" as="targetPoint" />
          </mxGeometry>
        </mxCell>
        <mxCell id="eBylzoKGfoWa9Z1TPYgh-38" value="Н_ТИПЫ_ВЕДОМОСТЕЙ" style="rounded=0;whiteSpace=wrap;html=1;" parent="1" vertex="1">
          <mxGeometry x="650" y="450" width="190" height="30" as="geometry" />
        </mxCell>
        <mxCell id="eBylzoKGfoWa9Z1TPYgh-39" value="Н_ВЕДОМОСТИ" style="rounded=0;whiteSpace=wrap;html=1;" parent="1" vertex="1">
          <mxGeometry x="890" y="450" width="190" height="30" as="geometry" />
        </mxCell>
        <mxCell id="eBylzoKGfoWa9Z1TPYgh-40" value="σ(Н_ТИПЫ_ВЕДОМОСТЕЙ.ИД &amp;gt; 1)" style="rounded=0;whiteSpace=wrap;html=1;" parent="1" vertex="1">
          <mxGeometry x="650" y="380" width="190" height="30" as="geometry" />
        </mxCell>
        <mxCell id="eBylzoKGfoWa9Z1TPYgh-43" value="" style="endArrow=none;html=1;rounded=0;entryX=0.5;entryY=1;entryDx=0;entryDy=0;exitX=0.5;exitY=0;exitDx=0;exitDy=0;" parent="1" source="eBylzoKGfoWa9Z1TPYgh-38" target="eBylzoKGfoWa9Z1TPYgh-40" edge="1">
          <mxGeometry width="50" height="50" relative="1" as="geometry">
            <mxPoint x="670" y="400" as="sourcePoint" />
            <mxPoint x="720" y="350" as="targetPoint" />
          </mxGeometry>
        </mxCell>
        <mxCell id="eBylzoKGfoWa9Z1TPYgh-47" value="σ(Н_ВЕДОМОСТИ.ЧЛВК_ИД &amp;gt; 105590)" style="rounded=0;whiteSpace=wrap;html=1;" parent="1" vertex="1">
          <mxGeometry x="890" y="380" width="190" height="30" as="geometry" />
        </mxCell>
        <mxCell id="eBylzoKGfoWa9Z1TPYgh-48" value="⋈(Н_ТИПЫ_ВЕДОМОСТЕЙ.ИД = Н_ВЕДОМОСТИ.ТВ_ИД)" style="rounded=0;whiteSpace=wrap;html=1;" parent="1" vertex="1">
          <mxGeometry x="780" y="300" width="190" height="50" as="geometry" />
        </mxCell>
        <mxCell id="eBylzoKGfoWa9Z1TPYgh-49" value="" style="endArrow=none;html=1;rounded=0;entryX=0.5;entryY=1;entryDx=0;entryDy=0;exitX=0.5;exitY=0;exitDx=0;exitDy=0;" parent="1" source="eBylzoKGfoWa9Z1TPYgh-40" target="eBylzoKGfoWa9Z1TPYgh-48" edge="1">
          <mxGeometry width="50" height="50" relative="1" as="geometry">
            <mxPoint x="740" y="390" as="sourcePoint" />
            <mxPoint x="790" y="340" as="targetPoint" />
          </mxGeometry>
        </mxCell>
        <mxCell id="eBylzoKGfoWa9Z1TPYgh-50" value="" style="endArrow=none;html=1;rounded=0;exitX=0.5;exitY=0;exitDx=0;exitDy=0;" parent="1" source="eBylzoKGfoWa9Z1TPYgh-47" edge="1">
          <mxGeometry width="50" height="50" relative="1" as="geometry">
            <mxPoint x="740" y="390" as="sourcePoint" />
            <mxPoint x="870" y="350" as="targetPoint" />
          </mxGeometry>
        </mxCell>
        <mxCell id="eBylzoKGfoWa9Z1TPYgh-51" value="" style="endArrow=none;html=1;rounded=0;entryX=0.5;entryY=1;entryDx=0;entryDy=0;exitX=0.5;exitY=0;exitDx=0;exitDy=0;" parent="1" source="eBylzoKGfoWa9Z1TPYgh-39" target="eBylzoKGfoWa9Z1TPYgh-47" edge="1">
          <mxGeometry width="50" height="50" relative="1" as="geometry">
            <mxPoint x="740" y="390" as="sourcePoint" />
            <mxPoint x="790" y="340" as="targetPoint" />
          </mxGeometry>
        </mxCell>
        <mxCell id="eBylzoKGfoWa9Z1TPYgh-52" value="π(Н_ТИПЫ_ВЕДОМОСТЕЙ.ИД, Н_ВЕДОМОСТИ.ДАТА)" style="rounded=0;whiteSpace=wrap;html=1;" parent="1" vertex="1">
          <mxGeometry x="-226" y="180" width="190" height="30" as="geometry" />
        </mxCell>
        <mxCell id="eBylzoKGfoWa9Z1TPYgh-53" value="" style="endArrow=none;html=1;rounded=0;entryX=0.5;entryY=1;entryDx=0;entryDy=0;exitX=0.5;exitY=0;exitDx=0;exitDy=0;" parent="1" source="eBylzoKGfoWa9Z1TPYgh-11" target="eBylzoKGfoWa9Z1TPYgh-52" edge="1">
          <mxGeometry width="50" height="50" relative="1" as="geometry">
            <mxPoint x="-150" y="290" as="sourcePoint" />
            <mxPoint x="-100" y="240" as="targetPoint" />
          </mxGeometry>
        </mxCell>
        <mxCell id="eBylzoKGfoWa9Z1TPYgh-54" value="π(Н_ТИПЫ_ВЕДОМОСТЕЙ.ИД, Н_ВЕДОМОСТИ.ДАТА)" style="rounded=0;whiteSpace=wrap;html=1;" parent="1" vertex="1">
          <mxGeometry x="270" y="180" width="190" height="30" as="geometry" />
        </mxCell>
        <mxCell id="eBylzoKGfoWa9Z1TPYgh-55" value="" style="endArrow=none;html=1;rounded=0;entryX=0.5;entryY=1;entryDx=0;entryDy=0;exitX=0.5;exitY=0;exitDx=0;exitDy=0;" parent="1" target="eBylzoKGfoWa9Z1TPYgh-54" edge="1">
          <mxGeometry width="50" height="50" relative="1" as="geometry">
            <mxPoint x="365" y="240" as="sourcePoint" />
            <mxPoint x="396" y="240" as="targetPoint" />
          </mxGeometry>
        </mxCell>
        <mxCell id="eBylzoKGfoWa9Z1TPYgh-56" value="π(Н_ТИПЫ_ВЕДОМОСТЕЙ.ИД, Н_ВЕДОМОСТИ.ДАТА)" style="rounded=0;whiteSpace=wrap;html=1;" parent="1" vertex="1">
          <mxGeometry x="780" y="240" width="190" height="30" as="geometry" />
        </mxCell>
        <mxCell id="eBylzoKGfoWa9Z1TPYgh-57" value="" style="endArrow=none;html=1;rounded=0;entryX=0.5;entryY=1;entryDx=0;entryDy=0;exitX=0.5;exitY=0;exitDx=0;exitDy=0;" parent="1" target="eBylzoKGfoWa9Z1TPYgh-56" edge="1">
          <mxGeometry width="50" height="50" relative="1" as="geometry">
            <mxPoint x="875" y="300" as="sourcePoint" />
            <mxPoint x="906" y="300" as="targetPoint" />
          </mxGeometry>
        </mxCell>
        <mxCell id="eBylzoKGfoWa9Z1TPYgh-58" value="Н_ЛЮДИ" style="rounded=0;whiteSpace=wrap;html=1;" parent="1" vertex="1">
          <mxGeometry x="-330" y="980" width="190" height="30" as="geometry" />
        </mxCell>
        <mxCell id="eBylzoKGfoWa9Z1TPYgh-59" value="Н_СЕССИЯ" style="rounded=0;whiteSpace=wrap;html=1;" parent="1" vertex="1">
          <mxGeometry x="-110" y="910" width="190" height="30" as="geometry" />
        </mxCell>
        <mxCell id="eBylzoKGfoWa9Z1TPYgh-60" value="⋈(Н_ЛЮДИ.ИД = Н_ВЕДОМОСТИ.ЧЛВК_ИД)" style="rounded=0;whiteSpace=wrap;html=1;" parent="1" vertex="1">
          <mxGeometry x="-330" y="890" width="190" height="50" as="geometry" />
        </mxCell>
        <mxCell id="eBylzoKGfoWa9Z1TPYgh-61" value="" style="endArrow=none;html=1;rounded=0;exitX=0.5;exitY=0;exitDx=0;exitDy=0;entryX=0.5;entryY=1;entryDx=0;entryDy=0;" parent="1" source="eBylzoKGfoWa9Z1TPYgh-58" target="eBylzoKGfoWa9Z1TPYgh-60" edge="1">
          <mxGeometry width="50" height="50" relative="1" as="geometry">
            <mxPoint x="-100" y="950" as="sourcePoint" />
            <mxPoint x="-120" y="940" as="targetPoint" />
          </mxGeometry>
        </mxCell>
        <mxCell id="eBylzoKGfoWa9Z1TPYgh-69" value="Н_ВЕДОМОСТИ" style="rounded=0;whiteSpace=wrap;html=1;" parent="1" vertex="1">
          <mxGeometry x="-110" y="980" width="190" height="30" as="geometry" />
        </mxCell>
        <mxCell id="eBylzoKGfoWa9Z1TPYgh-70" value="" style="endArrow=none;html=1;rounded=0;exitX=0.5;exitY=0;exitDx=0;exitDy=0;entryX=0.5;entryY=1;entryDx=0;entryDy=0;" parent="1" source="eBylzoKGfoWa9Z1TPYgh-69" target="eBylzoKGfoWa9Z1TPYgh-60" edge="1">
          <mxGeometry width="50" height="50" relative="1" as="geometry">
            <mxPoint x="-20" y="930" as="sourcePoint" />
            <mxPoint x="30" y="880" as="targetPoint" />
          </mxGeometry>
        </mxCell>
        <mxCell id="eBylzoKGfoWa9Z1TPYgh-71" value="⋈(Н_ЛЮДИ.ИД = Н_СЕССИЯ.ЧЛВК_ИД&lt;span style=&quot;background-color: initial;&quot;&gt;)&lt;/span&gt;" style="rounded=0;whiteSpace=wrap;html=1;" parent="1" vertex="1">
          <mxGeometry x="-226" y="810" width="190" height="50" as="geometry" />
        </mxCell>
        <mxCell id="eBylzoKGfoWa9Z1TPYgh-72" value="" style="endArrow=none;html=1;rounded=0;exitX=0.5;exitY=0;exitDx=0;exitDy=0;entryX=0.5;entryY=1;entryDx=0;entryDy=0;" parent="1" source="eBylzoKGfoWa9Z1TPYgh-59" target="eBylzoKGfoWa9Z1TPYgh-71" edge="1">
          <mxGeometry width="50" height="50" relative="1" as="geometry">
            <mxPoint y="770" as="sourcePoint" />
            <mxPoint x="50" y="720" as="targetPoint" />
          </mxGeometry>
        </mxCell>
        <mxCell id="eBylzoKGfoWa9Z1TPYgh-73" value="" style="endArrow=none;html=1;rounded=0;exitX=0.5;exitY=0;exitDx=0;exitDy=0;entryX=0.5;entryY=1;entryDx=0;entryDy=0;" parent="1" source="eBylzoKGfoWa9Z1TPYgh-60" target="eBylzoKGfoWa9Z1TPYgh-71" edge="1">
          <mxGeometry width="50" height="50" relative="1" as="geometry">
            <mxPoint y="770" as="sourcePoint" />
            <mxPoint x="50" y="720" as="targetPoint" />
          </mxGeometry>
        </mxCell>
        <mxCell id="eBylzoKGfoWa9Z1TPYgh-74" value="σ(Н_ЛЮДИ.ИД &amp;gt; 100012)" style="rounded=0;whiteSpace=wrap;html=1;" parent="1" vertex="1">
          <mxGeometry x="-226" y="740" width="190" height="30" as="geometry" />
        </mxCell>
        <mxCell id="eBylzoKGfoWa9Z1TPYgh-75" value="σ(Н_ВЕДОМОСТИ.ЧЛВК_ИД &amp;lt; 142390)" style="rounded=0;whiteSpace=wrap;html=1;" parent="1" vertex="1">
          <mxGeometry x="-226" y="680" width="190" height="30" as="geometry" />
        </mxCell>
        <mxCell id="eBylzoKGfoWa9Z1TPYgh-76" value="σ(Н_СЕССИЯ.УЧГОД &amp;gt; &#39;2003/2004&#39;)" style="rounded=0;whiteSpace=wrap;html=1;" parent="1" vertex="1">
          <mxGeometry x="-226" y="620" width="190" height="30" as="geometry" />
        </mxCell>
        <mxCell id="eBylzoKGfoWa9Z1TPYgh-77" value="" style="endArrow=none;html=1;rounded=0;exitX=0.5;exitY=0;exitDx=0;exitDy=0;entryX=0.5;entryY=1;entryDx=0;entryDy=0;" parent="1" source="eBylzoKGfoWa9Z1TPYgh-71" target="eBylzoKGfoWa9Z1TPYgh-74" edge="1">
          <mxGeometry width="50" height="50" relative="1" as="geometry">
            <mxPoint y="710" as="sourcePoint" />
            <mxPoint x="50" y="660" as="targetPoint" />
          </mxGeometry>
        </mxCell>
        <mxCell id="eBylzoKGfoWa9Z1TPYgh-78" value="" style="endArrow=none;html=1;rounded=0;exitX=0.5;exitY=0;exitDx=0;exitDy=0;entryX=0.5;entryY=1;entryDx=0;entryDy=0;" parent="1" source="eBylzoKGfoWa9Z1TPYgh-74" target="eBylzoKGfoWa9Z1TPYgh-75" edge="1">
          <mxGeometry width="50" height="50" relative="1" as="geometry">
            <mxPoint y="710" as="sourcePoint" />
            <mxPoint x="50" y="660" as="targetPoint" />
          </mxGeometry>
        </mxCell>
        <mxCell id="eBylzoKGfoWa9Z1TPYgh-79" value="" style="endArrow=none;html=1;rounded=0;exitX=0.5;exitY=0;exitDx=0;exitDy=0;entryX=0.5;entryY=1;entryDx=0;entryDy=0;" parent="1" source="eBylzoKGfoWa9Z1TPYgh-75" target="eBylzoKGfoWa9Z1TPYgh-76" edge="1">
          <mxGeometry width="50" height="50" relative="1" as="geometry">
            <mxPoint y="710" as="sourcePoint" />
            <mxPoint x="50" y="660" as="targetPoint" />
          </mxGeometry>
        </mxCell>
        <mxCell id="eBylzoKGfoWa9Z1TPYgh-80" value="π(Н_ЛЮДИ.ИД, Н_ВЕДОМОСТИ.ИД, Н_СЕССИЯ.ИД)" style="rounded=0;whiteSpace=wrap;html=1;" parent="1" vertex="1">
          <mxGeometry x="-226" y="540" width="190" height="50" as="geometry" />
        </mxCell>
        <mxCell id="eBylzoKGfoWa9Z1TPYgh-81" value="" style="endArrow=none;html=1;rounded=0;exitX=0.5;exitY=0;exitDx=0;exitDy=0;entryX=0.5;entryY=1;entryDx=0;entryDy=0;" parent="1" source="eBylzoKGfoWa9Z1TPYgh-76" target="eBylzoKGfoWa9Z1TPYgh-80" edge="1">
          <mxGeometry width="50" height="50" relative="1" as="geometry">
            <mxPoint y="720" as="sourcePoint" />
            <mxPoint x="50" y="670" as="targetPoint" />
          </mxGeometry>
        </mxCell>
        <mxCell id="eBylzoKGfoWa9Z1TPYgh-82" value="Н_ЛЮДИ" style="rounded=0;whiteSpace=wrap;html=1;" parent="1" vertex="1">
          <mxGeometry x="140" y="980" width="190" height="30" as="geometry" />
        </mxCell>
        <mxCell id="eBylzoKGfoWa9Z1TPYgh-83" value="Н_СЕССИЯ" style="rounded=0;whiteSpace=wrap;html=1;" parent="1" vertex="1">
          <mxGeometry x="370" y="850" width="190" height="30" as="geometry" />
        </mxCell>
        <mxCell id="eBylzoKGfoWa9Z1TPYgh-84" value="⋈(Н_ЛЮДИ.ИД = Н_ВЕДОМОСТИ.ЧЛВК_ИД)" style="rounded=0;whiteSpace=wrap;html=1;" parent="1" vertex="1">
          <mxGeometry x="140" y="840" width="190" height="50" as="geometry" />
        </mxCell>
        <mxCell id="eBylzoKGfoWa9Z1TPYgh-86" value="Н_ВЕДОМОСТИ" style="rounded=0;whiteSpace=wrap;html=1;" parent="1" vertex="1">
          <mxGeometry x="360" y="920" width="190" height="30" as="geometry" />
        </mxCell>
        <mxCell id="eBylzoKGfoWa9Z1TPYgh-88" value="⋈(Н_ЛЮДИ.ИД = Н_СЕССИЯ.ЧЛВК_ИД&lt;span style=&quot;background-color: initial;&quot;&gt;)&lt;/span&gt;" style="rounded=0;whiteSpace=wrap;html=1;" parent="1" vertex="1">
          <mxGeometry x="244" y="750" width="190" height="50" as="geometry" />
        </mxCell>
        <mxCell id="eBylzoKGfoWa9Z1TPYgh-91" value="σ(Н_ЛЮДИ.ИД &amp;gt; 100012)" style="rounded=0;whiteSpace=wrap;html=1;" parent="1" vertex="1">
          <mxGeometry x="140" y="920" width="190" height="30" as="geometry" />
        </mxCell>
        <mxCell id="eBylzoKGfoWa9Z1TPYgh-92" value="σ(Н_ВЕДОМОСТИ.ЧЛВК_ИД &amp;lt; 142390)" style="rounded=0;whiteSpace=wrap;html=1;" parent="1" vertex="1">
          <mxGeometry x="244" y="680" width="190" height="30" as="geometry" />
        </mxCell>
        <mxCell id="eBylzoKGfoWa9Z1TPYgh-93" value="σ(Н_СЕССИЯ.УЧГОД &amp;gt; &#39;2003/2004&#39;)" style="rounded=0;whiteSpace=wrap;html=1;" parent="1" vertex="1">
          <mxGeometry x="244" y="620" width="190" height="30" as="geometry" />
        </mxCell>
        <mxCell id="eBylzoKGfoWa9Z1TPYgh-97" value="π(Н_ЛЮДИ.ИД, Н_ВЕДОМОСТИ.ИД, Н_СЕССИЯ.ИД)" style="rounded=0;whiteSpace=wrap;html=1;" parent="1" vertex="1">
          <mxGeometry x="244" y="540" width="190" height="50" as="geometry" />
        </mxCell>
        <mxCell id="eBylzoKGfoWa9Z1TPYgh-99" value="" style="endArrow=none;html=1;rounded=0;exitX=0.5;exitY=0;exitDx=0;exitDy=0;entryX=0.5;entryY=1;entryDx=0;entryDy=0;" parent="1" source="eBylzoKGfoWa9Z1TPYgh-82" target="eBylzoKGfoWa9Z1TPYgh-91" edge="1">
          <mxGeometry width="50" height="50" relative="1" as="geometry">
            <mxPoint x="340" y="810" as="sourcePoint" />
            <mxPoint x="390" y="760" as="targetPoint" />
          </mxGeometry>
        </mxCell>
        <mxCell id="eBylzoKGfoWa9Z1TPYgh-100" value="" style="endArrow=none;html=1;rounded=0;exitX=0.5;exitY=0;exitDx=0;exitDy=0;entryX=0.5;entryY=1;entryDx=0;entryDy=0;" parent="1" source="eBylzoKGfoWa9Z1TPYgh-86" target="eBylzoKGfoWa9Z1TPYgh-84" edge="1">
          <mxGeometry width="50" height="50" relative="1" as="geometry">
            <mxPoint x="340" y="810" as="sourcePoint" />
            <mxPoint x="390" y="760" as="targetPoint" />
          </mxGeometry>
        </mxCell>
        <mxCell id="eBylzoKGfoWa9Z1TPYgh-101" value="" style="endArrow=none;html=1;rounded=0;exitX=0.5;exitY=0;exitDx=0;exitDy=0;entryX=0.5;entryY=1;entryDx=0;entryDy=0;" parent="1" source="eBylzoKGfoWa9Z1TPYgh-91" target="eBylzoKGfoWa9Z1TPYgh-84" edge="1">
          <mxGeometry width="50" height="50" relative="1" as="geometry">
            <mxPoint x="340" y="810" as="sourcePoint" />
            <mxPoint x="390" y="760" as="targetPoint" />
          </mxGeometry>
        </mxCell>
        <mxCell id="eBylzoKGfoWa9Z1TPYgh-102" value="" style="endArrow=none;html=1;rounded=0;exitX=0.5;exitY=0;exitDx=0;exitDy=0;entryX=0.5;entryY=1;entryDx=0;entryDy=0;" parent="1" source="eBylzoKGfoWa9Z1TPYgh-83" target="eBylzoKGfoWa9Z1TPYgh-88" edge="1">
          <mxGeometry width="50" height="50" relative="1" as="geometry">
            <mxPoint x="340" y="810" as="sourcePoint" />
            <mxPoint x="390" y="760" as="targetPoint" />
          </mxGeometry>
        </mxCell>
        <mxCell id="eBylzoKGfoWa9Z1TPYgh-103" value="" style="endArrow=none;html=1;rounded=0;exitX=0.5;exitY=0;exitDx=0;exitDy=0;entryX=0.5;entryY=1;entryDx=0;entryDy=0;" parent="1" source="eBylzoKGfoWa9Z1TPYgh-84" target="eBylzoKGfoWa9Z1TPYgh-88" edge="1">
          <mxGeometry width="50" height="50" relative="1" as="geometry">
            <mxPoint x="340" y="810" as="sourcePoint" />
            <mxPoint x="390" y="760" as="targetPoint" />
          </mxGeometry>
        </mxCell>
        <mxCell id="eBylzoKGfoWa9Z1TPYgh-104" value="" style="endArrow=none;html=1;rounded=0;entryX=0.5;entryY=1;entryDx=0;entryDy=0;" parent="1" target="eBylzoKGfoWa9Z1TPYgh-92" edge="1">
          <mxGeometry width="50" height="50" relative="1" as="geometry">
            <mxPoint x="340" y="750" as="sourcePoint" />
            <mxPoint x="390" y="760" as="targetPoint" />
          </mxGeometry>
        </mxCell>
        <mxCell id="eBylzoKGfoWa9Z1TPYgh-105" value="" style="endArrow=none;html=1;rounded=0;entryX=0.5;entryY=1;entryDx=0;entryDy=0;" parent="1" target="eBylzoKGfoWa9Z1TPYgh-93" edge="1">
          <mxGeometry width="50" height="50" relative="1" as="geometry">
            <mxPoint x="339" y="680" as="sourcePoint" />
            <mxPoint x="390" y="760" as="targetPoint" />
          </mxGeometry>
        </mxCell>
        <mxCell id="eBylzoKGfoWa9Z1TPYgh-106" value="" style="endArrow=none;html=1;rounded=0;entryX=0.5;entryY=1;entryDx=0;entryDy=0;exitX=0.5;exitY=0;exitDx=0;exitDy=0;" parent="1" source="eBylzoKGfoWa9Z1TPYgh-93" target="eBylzoKGfoWa9Z1TPYgh-97" edge="1">
          <mxGeometry width="50" height="50" relative="1" as="geometry">
            <mxPoint x="339" y="630" as="sourcePoint" />
            <mxPoint x="390" y="760" as="targetPoint" />
          </mxGeometry>
        </mxCell>
        <mxCell id="eBylzoKGfoWa9Z1TPYgh-107" value="Н_ЛЮДИ" style="rounded=0;whiteSpace=wrap;html=1;" parent="1" vertex="1">
          <mxGeometry x="610" y="980" width="190" height="30" as="geometry" />
        </mxCell>
        <mxCell id="eBylzoKGfoWa9Z1TPYgh-108" value="Н_СЕССИЯ" style="rounded=0;whiteSpace=wrap;html=1;" parent="1" vertex="1">
          <mxGeometry x="827" y="860" width="190" height="30" as="geometry" />
        </mxCell>
        <mxCell id="eBylzoKGfoWa9Z1TPYgh-109" value="⋈(Н_ЛЮДИ.ИД = Н_ВЕДОМОСТИ.ЧЛВК_ИД)" style="rounded=0;whiteSpace=wrap;html=1;" parent="1" vertex="1">
          <mxGeometry x="610" y="840" width="190" height="50" as="geometry" />
        </mxCell>
        <mxCell id="eBylzoKGfoWa9Z1TPYgh-110" value="Н_ВЕДОМОСТИ" style="rounded=0;whiteSpace=wrap;html=1;" parent="1" vertex="1">
          <mxGeometry x="827" y="980" width="190" height="30" as="geometry" />
        </mxCell>
        <mxCell id="eBylzoKGfoWa9Z1TPYgh-111" value="⋈(Н_ЛЮДИ.ИД = Н_СЕССИЯ.ЧЛВК_ИД&lt;span style=&quot;background-color: initial;&quot;&gt;)&lt;/span&gt;" style="rounded=0;whiteSpace=wrap;html=1;" parent="1" vertex="1">
          <mxGeometry x="714" y="750" width="190" height="50" as="geometry" />
        </mxCell>
        <mxCell id="eBylzoKGfoWa9Z1TPYgh-112" value="σ(Н_ЛЮДИ.ИД &amp;gt; 100012)" style="rounded=0;whiteSpace=wrap;html=1;" parent="1" vertex="1">
          <mxGeometry x="610" y="920" width="190" height="30" as="geometry" />
        </mxCell>
        <mxCell id="eBylzoKGfoWa9Z1TPYgh-113" value="σ(Н_ВЕДОМОСТИ.ЧЛВК_ИД &amp;lt; 142390)" style="rounded=0;whiteSpace=wrap;html=1;" parent="1" vertex="1">
          <mxGeometry x="827" y="920" width="190" height="30" as="geometry" />
        </mxCell>
        <mxCell id="eBylzoKGfoWa9Z1TPYgh-114" value="σ(Н_СЕССИЯ.УЧГОД &amp;gt; &#39;2003/2004&#39;)" style="rounded=0;whiteSpace=wrap;html=1;" parent="1" vertex="1">
          <mxGeometry x="714" y="680" width="190" height="30" as="geometry" />
        </mxCell>
        <mxCell id="eBylzoKGfoWa9Z1TPYgh-115" value="π(Н_ЛЮДИ.ИД, Н_ВЕДОМОСТИ.ИД, Н_СЕССИЯ.ИД)" style="rounded=0;whiteSpace=wrap;html=1;" parent="1" vertex="1">
          <mxGeometry x="714" y="600" width="190" height="50" as="geometry" />
        </mxCell>
        <mxCell id="eBylzoKGfoWa9Z1TPYgh-116" value="" style="endArrow=none;html=1;rounded=0;exitX=0.5;exitY=0;exitDx=0;exitDy=0;entryX=0.5;entryY=1;entryDx=0;entryDy=0;" parent="1" source="eBylzoKGfoWa9Z1TPYgh-107" target="eBylzoKGfoWa9Z1TPYgh-112" edge="1">
          <mxGeometry width="50" height="50" relative="1" as="geometry">
            <mxPoint x="810" y="810" as="sourcePoint" />
            <mxPoint x="860" y="760" as="targetPoint" />
          </mxGeometry>
        </mxCell>
        <mxCell id="eBylzoKGfoWa9Z1TPYgh-118" value="" style="endArrow=none;html=1;rounded=0;exitX=0.5;exitY=0;exitDx=0;exitDy=0;entryX=0.5;entryY=1;entryDx=0;entryDy=0;" parent="1" source="eBylzoKGfoWa9Z1TPYgh-112" target="eBylzoKGfoWa9Z1TPYgh-109" edge="1">
          <mxGeometry width="50" height="50" relative="1" as="geometry">
            <mxPoint x="810" y="810" as="sourcePoint" />
            <mxPoint x="860" y="760" as="targetPoint" />
          </mxGeometry>
        </mxCell>
        <mxCell id="eBylzoKGfoWa9Z1TPYgh-123" value="" style="endArrow=none;html=1;rounded=0;entryX=0.5;entryY=1;entryDx=0;entryDy=0;exitX=0.5;exitY=0;exitDx=0;exitDy=0;" parent="1" source="eBylzoKGfoWa9Z1TPYgh-114" target="eBylzoKGfoWa9Z1TPYgh-115" edge="1">
          <mxGeometry width="50" height="50" relative="1" as="geometry">
            <mxPoint x="809" y="630" as="sourcePoint" />
            <mxPoint x="860" y="760" as="targetPoint" />
          </mxGeometry>
        </mxCell>
        <mxCell id="eBylzoKGfoWa9Z1TPYgh-125" value="" style="endArrow=none;html=1;rounded=0;exitX=0.5;exitY=0;exitDx=0;exitDy=0;entryX=0.5;entryY=1;entryDx=0;entryDy=0;" parent="1" source="eBylzoKGfoWa9Z1TPYgh-113" target="eBylzoKGfoWa9Z1TPYgh-109" edge="1">
          <mxGeometry width="50" height="50" relative="1" as="geometry">
            <mxPoint x="780" y="820" as="sourcePoint" />
            <mxPoint x="830" y="770" as="targetPoint" />
          </mxGeometry>
        </mxCell>
        <mxCell id="eBylzoKGfoWa9Z1TPYgh-126" value="" style="endArrow=none;html=1;rounded=0;exitX=0.5;exitY=0;exitDx=0;exitDy=0;entryX=0.5;entryY=1;entryDx=0;entryDy=0;" parent="1" source="eBylzoKGfoWa9Z1TPYgh-110" target="eBylzoKGfoWa9Z1TPYgh-113" edge="1">
          <mxGeometry width="50" height="50" relative="1" as="geometry">
            <mxPoint x="780" y="820" as="sourcePoint" />
            <mxPoint x="830" y="770" as="targetPoint" />
          </mxGeometry>
        </mxCell>
        <mxCell id="eBylzoKGfoWa9Z1TPYgh-127" value="" style="endArrow=none;html=1;rounded=0;exitX=0.5;exitY=0;exitDx=0;exitDy=0;entryX=0.5;entryY=1;entryDx=0;entryDy=0;" parent="1" source="eBylzoKGfoWa9Z1TPYgh-108" target="eBylzoKGfoWa9Z1TPYgh-111" edge="1">
          <mxGeometry width="50" height="50" relative="1" as="geometry">
            <mxPoint x="780" y="820" as="sourcePoint" />
            <mxPoint x="830" y="770" as="targetPoint" />
          </mxGeometry>
        </mxCell>
        <mxCell id="eBylzoKGfoWa9Z1TPYgh-128" value="" style="endArrow=none;html=1;rounded=0;exitX=0.5;exitY=0;exitDx=0;exitDy=0;entryX=0.5;entryY=1;entryDx=0;entryDy=0;" parent="1" source="eBylzoKGfoWa9Z1TPYgh-109" target="eBylzoKGfoWa9Z1TPYgh-111" edge="1">
          <mxGeometry width="50" height="50" relative="1" as="geometry">
            <mxPoint x="780" y="820" as="sourcePoint" />
            <mxPoint x="830" y="770" as="targetPoint" />
          </mxGeometry>
        </mxCell>
        <mxCell id="eBylzoKGfoWa9Z1TPYgh-129" value="" style="endArrow=none;html=1;rounded=0;exitX=0.5;exitY=0;exitDx=0;exitDy=0;entryX=0.5;entryY=1;entryDx=0;entryDy=0;" parent="1" source="eBylzoKGfoWa9Z1TPYgh-111" target="eBylzoKGfoWa9Z1TPYgh-114" edge="1">
          <mxGeometry width="50" height="50" relative="1" as="geometry">
            <mxPoint x="780" y="820" as="sourcePoint" />
            <mxPoint x="830" y="770" as="targetPoint" />
          </mxGeometry>
        </mxCell>
        <mxCell id="eBylzoKGfoWa9Z1TPYgh-130" value="Н_ЛЮДИ" style="rounded=0;whiteSpace=wrap;html=1;" parent="1" vertex="1">
          <mxGeometry x="1080" y="980" width="190" height="30" as="geometry" />
        </mxCell>
        <mxCell id="eBylzoKGfoWa9Z1TPYgh-131" value="Н_СЕССИЯ" style="rounded=0;whiteSpace=wrap;html=1;" parent="1" vertex="1">
          <mxGeometry x="1297" y="860" width="190" height="30" as="geometry" />
        </mxCell>
        <mxCell id="eBylzoKGfoWa9Z1TPYgh-132" value="⋈(Н_ЛЮДИ.ИД = Н_ВЕДОМОСТИ.ЧЛВК_ИД)" style="rounded=0;whiteSpace=wrap;html=1;" parent="1" vertex="1">
          <mxGeometry x="1080" y="830" width="190" height="50" as="geometry" />
        </mxCell>
        <mxCell id="eBylzoKGfoWa9Z1TPYgh-133" value="Н_ВЕДОМОСТИ" style="rounded=0;whiteSpace=wrap;html=1;" parent="1" vertex="1">
          <mxGeometry x="1297" y="980" width="190" height="30" as="geometry" />
        </mxCell>
        <mxCell id="eBylzoKGfoWa9Z1TPYgh-134" value="⋈(Н_ЛЮДИ.ИД = Н_СЕССИЯ.ЧЛВК_ИД&lt;span style=&quot;background-color: initial;&quot;&gt;)&lt;/span&gt;" style="rounded=0;whiteSpace=wrap;html=1;" parent="1" vertex="1">
          <mxGeometry x="1170" y="710" width="190" height="50" as="geometry" />
        </mxCell>
        <mxCell id="eBylzoKGfoWa9Z1TPYgh-135" value="σ(Н_ЛЮДИ.ИД &amp;gt; 100012)" style="rounded=0;whiteSpace=wrap;html=1;" parent="1" vertex="1">
          <mxGeometry x="1080" y="920" width="190" height="30" as="geometry" />
        </mxCell>
        <mxCell id="eBylzoKGfoWa9Z1TPYgh-136" value="σ(Н_ВЕДОМОСТИ.ЧЛВК_ИД &amp;lt; 142390)" style="rounded=0;whiteSpace=wrap;html=1;" parent="1" vertex="1">
          <mxGeometry x="1297" y="920" width="190" height="30" as="geometry" />
        </mxCell>
        <mxCell id="eBylzoKGfoWa9Z1TPYgh-137" value="σ(Н_СЕССИЯ.УЧГОД &amp;gt; &#39;2003/2004&#39;)" style="rounded=0;whiteSpace=wrap;html=1;" parent="1" vertex="1">
          <mxGeometry x="1297" y="800" width="190" height="30" as="geometry" />
        </mxCell>
        <mxCell id="eBylzoKGfoWa9Z1TPYgh-138" value="π(Н_ЛЮДИ.ИД, Н_ВЕДОМОСТИ.ИД, Н_СЕССИЯ.ИД)" style="rounded=0;whiteSpace=wrap;html=1;" parent="1" vertex="1">
          <mxGeometry x="1170" y="630" width="190" height="50" as="geometry" />
        </mxCell>
        <mxCell id="eBylzoKGfoWa9Z1TPYgh-139" value="" style="endArrow=none;html=1;rounded=0;exitX=0.5;exitY=0;exitDx=0;exitDy=0;entryX=0.5;entryY=1;entryDx=0;entryDy=0;" parent="1" source="eBylzoKGfoWa9Z1TPYgh-130" target="eBylzoKGfoWa9Z1TPYgh-135" edge="1">
          <mxGeometry width="50" height="50" relative="1" as="geometry">
            <mxPoint x="1280" y="810" as="sourcePoint" />
            <mxPoint x="1330" y="760" as="targetPoint" />
          </mxGeometry>
        </mxCell>
        <mxCell id="eBylzoKGfoWa9Z1TPYgh-140" value="" style="endArrow=none;html=1;rounded=0;exitX=0.5;exitY=0;exitDx=0;exitDy=0;entryX=0.5;entryY=1;entryDx=0;entryDy=0;" parent="1" source="eBylzoKGfoWa9Z1TPYgh-135" target="eBylzoKGfoWa9Z1TPYgh-132" edge="1">
          <mxGeometry width="50" height="50" relative="1" as="geometry">
            <mxPoint x="1280" y="810" as="sourcePoint" />
            <mxPoint x="1330" y="760" as="targetPoint" />
          </mxGeometry>
        </mxCell>
        <mxCell id="eBylzoKGfoWa9Z1TPYgh-142" value="" style="endArrow=none;html=1;rounded=0;exitX=0.5;exitY=0;exitDx=0;exitDy=0;entryX=0.5;entryY=1;entryDx=0;entryDy=0;" parent="1" source="eBylzoKGfoWa9Z1TPYgh-136" target="eBylzoKGfoWa9Z1TPYgh-132" edge="1">
          <mxGeometry width="50" height="50" relative="1" as="geometry">
            <mxPoint x="1250" y="820" as="sourcePoint" />
            <mxPoint x="1300" y="770" as="targetPoint" />
          </mxGeometry>
        </mxCell>
        <mxCell id="eBylzoKGfoWa9Z1TPYgh-143" value="" style="endArrow=none;html=1;rounded=0;exitX=0.5;exitY=0;exitDx=0;exitDy=0;entryX=0.5;entryY=1;entryDx=0;entryDy=0;" parent="1" source="eBylzoKGfoWa9Z1TPYgh-133" target="eBylzoKGfoWa9Z1TPYgh-136" edge="1">
          <mxGeometry width="50" height="50" relative="1" as="geometry">
            <mxPoint x="1250" y="820" as="sourcePoint" />
            <mxPoint x="1300" y="770" as="targetPoint" />
          </mxGeometry>
        </mxCell>
        <mxCell id="eBylzoKGfoWa9Z1TPYgh-145" value="" style="endArrow=none;html=1;rounded=0;exitX=0.5;exitY=0;exitDx=0;exitDy=0;entryX=0.5;entryY=1;entryDx=0;entryDy=0;" parent="1" source="eBylzoKGfoWa9Z1TPYgh-132" target="eBylzoKGfoWa9Z1TPYgh-134" edge="1">
          <mxGeometry width="50" height="50" relative="1" as="geometry">
            <mxPoint x="1250" y="820" as="sourcePoint" />
            <mxPoint x="1300" y="770" as="targetPoint" />
          </mxGeometry>
        </mxCell>
        <mxCell id="eBylzoKGfoWa9Z1TPYgh-148" value="" style="endArrow=none;html=1;rounded=0;exitX=0.5;exitY=0;exitDx=0;exitDy=0;entryX=0.5;entryY=1;entryDx=0;entryDy=0;" parent="1" source="eBylzoKGfoWa9Z1TPYgh-131" target="eBylzoKGfoWa9Z1TPYgh-137" edge="1">
          <mxGeometry width="50" height="50" relative="1" as="geometry">
            <mxPoint x="1220" y="820" as="sourcePoint" />
            <mxPoint x="1270" y="770" as="targetPoint" />
          </mxGeometry>
        </mxCell>
        <mxCell id="eBylzoKGfoWa9Z1TPYgh-150" value="" style="endArrow=none;html=1;rounded=0;entryX=0.5;entryY=1;entryDx=0;entryDy=0;exitX=0.5;exitY=0;exitDx=0;exitDy=0;" parent="1" source="eBylzoKGfoWa9Z1TPYgh-137" target="eBylzoKGfoWa9Z1TPYgh-134" edge="1">
          <mxGeometry width="50" height="50" relative="1" as="geometry">
            <mxPoint x="1220" y="820" as="sourcePoint" />
            <mxPoint x="1270" y="770" as="targetPoint" />
          </mxGeometry>
        </mxCell>
        <mxCell id="eBylzoKGfoWa9Z1TPYgh-151" value="" style="endArrow=none;html=1;rounded=0;entryX=0.5;entryY=1;entryDx=0;entryDy=0;exitX=0.5;exitY=0;exitDx=0;exitDy=0;" parent="1" source="eBylzoKGfoWa9Z1TPYgh-134" target="eBylzoKGfoWa9Z1TPYgh-138" edge="1">
          <mxGeometry width="50" height="50" relative="1" as="geometry">
            <mxPoint x="1220" y="820" as="sourcePoint" />
            <mxPoint x="1270" y="770" as="targetPoint" />
          </mxGeometry>
        </mxCell>
        <mxCell id="eBylzoKGfoWa9Z1TPYgh-152" value="Actor" style="shape=umlActor;verticalLabelPosition=bottom;verticalAlign=top;html=1;outlineConnect=0;" parent="1" vertex="1">
          <mxGeometry x="-610" y="350" width="30" height="60" as="geometry" />
        </mxCell>
        <mxCell id="eBylzoKGfoWa9Z1TPYgh-153" value="Actor" style="shape=umlActor;verticalLabelPosition=bottom;verticalAlign=top;html=1;outlineConnect=0;" parent="1" vertex="1">
          <mxGeometry x="-609" y="910" width="30" height="60" as="geometry" />
        </mxCell>
        <mxCell id="eBylzoKGfoWa9Z1TPYgh-154" value="Actor" style="shape=umlActor;verticalLabelPosition=bottom;verticalAlign=top;html=1;outlineConnect=0;" parent="1" vertex="1">
          <mxGeometry x="1610" y="980" width="30" height="60" as="geometry" />
        </mxCell>
        <mxCell id="eBylzoKGfoWa9Z1TPYgh-155" value="Actor" style="shape=umlActor;verticalLabelPosition=bottom;verticalAlign=top;html=1;outlineConnect=0;" parent="1" vertex="1">
          <mxGeometry x="1610" y="370" width="30" height="60" as="geometry" />
        </mxCell>
        <mxCell id="eBylzoKGfoWa9Z1TPYgh-156" value="Actor" style="shape=umlActor;verticalLabelPosition=bottom;verticalAlign=top;html=1;outlineConnect=0;" parent="1" vertex="1">
          <mxGeometry x="-470" width="30" height="60" as="geometry" />
        </mxCell>
        <mxCell id="HI0WtwvVaFBq_tG_x4Us-1" value="&lt;font style=&quot;font-size: 18px;&quot;&gt;1&lt;/font&gt;" style="text;html=1;strokeColor=none;fillColor=none;align=center;verticalAlign=middle;whiteSpace=wrap;rounded=0;" vertex="1" parent="1">
          <mxGeometry x="-320" y="300" width="60" height="30" as="geometry" />
        </mxCell>
        <mxCell id="HI0WtwvVaFBq_tG_x4Us-2" value="&lt;font style=&quot;font-size: 18px;&quot;&gt;2&lt;/font&gt;" style="text;html=1;strokeColor=none;fillColor=none;align=center;verticalAlign=middle;whiteSpace=wrap;rounded=0;" vertex="1" parent="1">
          <mxGeometry x="170" y="300" width="60" height="30" as="geometry" />
        </mxCell>
        <mxCell id="HI0WtwvVaFBq_tG_x4Us-3" value="&lt;font style=&quot;font-size: 18px;&quot;&gt;3&lt;/font&gt;" style="text;html=1;strokeColor=none;fillColor=none;align=center;verticalAlign=middle;whiteSpace=wrap;rounded=0;" vertex="1" parent="1">
          <mxGeometry x="690" y="300" width="60" height="30" as="geometry" />
        </mxCell>
        <mxCell id="HI0WtwvVaFBq_tG_x4Us-4" value="&lt;font style=&quot;font-size: 18px;&quot;&gt;1&lt;/font&gt;" style="text;html=1;strokeColor=none;fillColor=none;align=center;verticalAlign=middle;whiteSpace=wrap;rounded=0;" vertex="1" parent="1">
          <mxGeometry x="-320" y="760" width="60" height="30" as="geometry" />
        </mxCell>
        <mxCell id="HI0WtwvVaFBq_tG_x4Us-5" value="&lt;font style=&quot;font-size: 18px;&quot;&gt;2&lt;/font&gt;" style="text;html=1;strokeColor=none;fillColor=none;align=center;verticalAlign=middle;whiteSpace=wrap;rounded=0;" vertex="1" parent="1">
          <mxGeometry x="160" y="760" width="60" height="30" as="geometry" />
        </mxCell>
        <mxCell id="HI0WtwvVaFBq_tG_x4Us-6" value="&lt;font style=&quot;font-size: 18px;&quot;&gt;3&lt;/font&gt;" style="text;html=1;strokeColor=none;fillColor=none;align=center;verticalAlign=middle;whiteSpace=wrap;rounded=0;" vertex="1" parent="1">
          <mxGeometry x="630" y="760" width="60" height="30" as="geometry" />
        </mxCell>
        <mxCell id="HI0WtwvVaFBq_tG_x4Us-7" value="&lt;font style=&quot;font-size: 18px;&quot;&gt;4&lt;/font&gt;" style="text;html=1;strokeColor=none;fillColor=none;align=center;verticalAlign=middle;whiteSpace=wrap;rounded=0;" vertex="1" parent="1">
          <mxGeometry x="1090" y="760" width="60" height="30" as="geometry" />
        </mxCell>
      </root>
    </mxGraphModel>
  </diagram>
</mxfile>
